# xmcd
#
# Track frame offsets: 
#        150
#        16750
#        31462
#        40750
#        53600
#        62712
#        74850
#        83625
#        93100
#        102825
#
# Disc length: 1579 seconds
#
# Revision: 0
# Processed by: cddbd v1.5.2PL0 Copyright (c) Steve Scherf et al.
# Submitted via: ExactAudioCopy v0.95a5
#
DISCID=7606290a
DTITLE=Ïã¸ÛÈºÐÇ - ½ñÄê»á¸üºÃ
DYEAR=2013
DGENRE=
TTITLE0=²ÆÉñµ½
TTITLE1=×£¸£Äã
TTITLE2=Ð'ºËÌÏ×
TTITLE3=Ó­´º»¨
TTITLE4=×£ÐÂËê
TTITLE5=»¶ÀÖÄêÄê
TTITLE6=¹§Ï²Äã
TTITLE7=¹§Ï²¹§Ï²
TTITLE8=Ð'º±¨Ï²
TTITLE9=´º·ç±¨Ï²
EXTD=
EXTT0=
EXTT1=
EXTT2=
EXTT3=
EXTT4=
EXTT5=
EXTT6=
EXTT7=
EXTT8=
EXTT9=
PLAYORDER=
